Coordinates
version=1
nRows=13
nColumns=36
inDegrees=yes

Units are S.I. units (second, meters, Newtons, ...)
If the header above contains a line with 'inDegrees', this indicates whether rotational values are in degrees (yes) or radians (no).

endheader
time	pelvis_tilt	pelvis_list	pelvis_rotation	pelvis_tx	pelvis_ty	pelvis_tz	hip_flexion_r	hip_adduction_r	hip_rotation_r	knee_angle_r	knee_angle_r_beta	ankle_angle_r	subtalar_angle_r	mtp_angle_r	hip_flexion_l	hip_adduction_l	hip_rotation_l	knee_angle_l	knee_angle_l_beta	ankle_angle_l	subtalar_angle_l	mtp_angle_l	lumbar_extension	lumbar_bending	lumbar_rotation	arm_flex_r	arm_add_r	arm_rot_r	elbow_flex_r	pro_sup_r	arm_flex_l	arm_add_l	arm_rot_l	elbow_flex_l	pro_sup_l
      0.00000000	      0.78743061	     -6.45646815	     -2.01690912	      1.41343129	      1.00401430	     -0.03955448	     34.69550042	      4.25533032	     -1.59804252	     14.10797413	      0.24623060	     -4.38523333	     -8.39751537	     -6.72641355	     -1.99558861	      0.58920489	      5.42539427	      4.20402013	      0.07337399	      9.83869717	      1.13820840	     -6.72641355	    -10.37795009	      2.74114113	     -4.40456991	     25.90099605	     -3.05832617	     49.75458547	    115.68542542	     84.89659517	     17.77724867	    -15.02207941	     64.48506632	    130.47224657	     98.14697425
      0.01666670	      0.89436151	     -5.77649985	     -0.68453392	      1.41892645	      0.99986333	     -0.04014413	     33.76562910	      2.90497469	     -3.39458044	      9.49932945	      0.16579458	      0.46900305	      4.00373907	     -6.75186463	     -1.18942973	      1.18236394	      4.84499553	      6.93337436	      0.12101021	      8.83132330	     -0.08274356	     -6.75186463	    -11.07206786	      1.47996917	     -2.78087812	     24.76921042	     -5.92034547	     51.65215172	    121.65581613	     87.77642405	     20.28753984	    -15.31070878	     61.58846330	    135.51193338	    100.89697454
      0.03333330	     -0.14659749	     -4.79253989	     -0.80170159	      1.42048794	      0.99615142	     -0.03714266	     33.83254404	      2.06899033	     -4.10111854	      5.76657576	      0.10064573	      1.07424133	      7.18813741	     -6.89577912	      0.41907615	      2.12452209	      3.99123111	      8.51167447	      0.14855674	     10.48517103	      0.06451991	     -6.89577912	     -8.26429580	      0.56535119	     -3.45815229	     24.26197725	     -4.26711702	     50.20382724	    120.88137089	     97.39720453	     19.39100813	    -15.40496969	     58.17585218	    136.36587674	    108.84235532
      0.05000000	      0.60863076	     -4.84967381	     -0.43369534	      1.41926665	      0.99653313	     -0.03765516	     33.30446233	      1.77387917	     -4.69946501	      6.16347230	      0.10757289	      2.60458321	      8.60959784	     -6.97172854	      0.27884821	      2.23887635	      4.23142305	      9.48079016	      0.16547100	     12.58500402	      1.66532984	     -6.97172854	     -8.40873326	      0.68917983	     -3.79074035	     24.39859687	     -3.71857558	     49.20202521	    120.51135223	     95.69994334	     20.32005446	    -14.63461930	     56.91248285	    135.93913056	    106.14653029
      0.06666670	      1.41199331	     -5.03820277	     -0.36384515	      1.41803658	      0.99802873	     -0.03797548	     33.01193609	      1.74152750	     -5.28519759	      7.44694194	      0.12997366	      2.15224320	      9.64498381	     -7.12131187	     -0.20396654	      2.19580172	      4.11260381	      9.97407933	      0.17408052	     14.10790476	      2.63813821	     -7.12131187	     -8.95610249	      0.97981501	     -3.82669443	     24.83099648	     -3.52164356	     48.73698863	    119.46024263	     99.24812993	     21.16332210	    -13.96241178	     56.42461940	    134.86573536	    104.90141223
      0.08333330	      2.06133095	     -4.99408241	     -0.31077179	      1.41690506	      0.99931375	     -0.03834766	     33.18406811	      1.46411937	     -5.37294580	      9.14486082	      0.15960793	      0.83460248	      9.52905798	     -7.15499632	     -0.61982177	      2.40667371	      4.43589444	     10.14329533	      0.17703390	     14.65861677	      2.74715751	     -7.15499632	     -9.45275209	      1.01233572	     -3.70383808	     25.02677878	     -3.39010229	     48.40608502	    118.95743197	     97.29128604	     21.92722065	    -13.35065919	     55.77470057	    134.35307891	    101.79228670
      0.10000000	      2.70536466	     -4.93398908	     -0.07797208	      1.41603372	      1.00033865	     -0.03864203	     33.12036704	      1.17573342	     -5.24850512	     10.29806275	      0.17973510	     -0.69230979	      9.11333906	     -7.20479573	     -1.10721754	      2.53633518	      4.68253133	     10.26609921	      0.17917723	     14.81767670	      2.87673981	     -7.20479573	     -9.95597450	      0.94562334	     -3.87295603	     25.11670894	     -3.12625762	     48.05654811	    118.20363876	     95.15328878	     22.52447811	    -12.94170535	     55.11041392	    133.82725556	     98.69536918
      0.11666670	      3.10700045	     -4.70408165	      0.11137023	      1.41079664	      1.00270819	     -0.03657823	     33.43538080	      0.78290896	     -5.03367950	     11.41370071	      0.19920666	     -1.99588231	      8.94384778	     -7.20961644	     -1.11661830	      2.81555349	      4.88398013	     10.57316683	      0.18453657	     14.78786378	      2.93454924	     -7.20961644	    -10.50027574	      0.68070282	     -3.82025511	     25.48878924	     -2.97075959	     47.87440055	    117.64399998	     95.38657797	     23.25337260	    -12.87710383	     54.82736051	    133.59873210	     98.50737838
      0.13333330	      3.36514353	     -4.70845789	      0.22537707	      1.41523181	      1.00309050	     -0.03952574	     33.56486181	      0.66136110	     -4.83517985	     12.10310860	      0.21123909	     -2.80588244	      9.06070915	     -7.21030286	     -1.20095686	      2.84735591	      4.96185521	     10.75416758	      0.18769563	     14.70821151	      2.98701066	     -7.21030286	    -10.77626266	      0.81565043	     -3.97538482	     25.33501958	     -3.02638931	     47.78566733	    117.48003569	     95.39898504	     23.35704631	    -12.79661968	     54.74720197	    133.45938502	     98.45444341
      0.15000000	      3.71068933	     -4.46327448	      0.39103160	      1.40942756	      1.00160130	     -0.03678183	     33.80808786	      0.29391313	     -4.70417390	     12.91855540	      0.22547133	     -3.68077820	      8.79402713	     -7.21227115	     -1.05014186	      3.08992197	      4.83281105	     11.26457311	      0.19660389	     14.71084963	      2.88791114	     -7.21227115	    -11.25889167	      0.44891220	     -3.87220227	     25.68264155	     -2.60982180	     47.29531882	    117.11081356	     95.39922792	     23.94734196	    -12.71776414	     54.51611607	    133.40235160	     98.26434647
      0.16666670	      3.82132700	     -4.19208766	      0.46201420	      1.40916380	      1.00355912	     -0.03691797	     34.16451867	      0.01298382	     -4.11401866	     13.52876318	      0.23612146	     -4.10657086	      8.31909717	     -7.24366715	     -0.82956460	      3.32573049	      4.79163324	     11.63565883	      0.20308056	     14.73539421	      2.79719748	     -7.24366715	    -11.39250075	      0.08122115	     -3.81242970	     25.52716846	     -2.29229318	     46.44224126	    116.70796940	     93.57483282	     24.37248510	    -12.83274189	     54.43868010	    133.29061908	     95.85380380
      0.18333330	      4.11430314	     -4.11171199	      0.51388864	      1.40854381	      1.00402110	     -0.03702118	     34.06205353	     -0.07190649	     -3.80816198	     13.86942050	      0.24206705	     -4.41461686	      8.12805930	     -7.27962618	     -0.93518864	      3.33021212	      4.59084635	     11.89544167	      0.20761462	     14.77721946	      2.77027953	     -7.27962618	    -11.77372387	     -0.03387759	     -3.62755042	     25.65362854	     -2.23128391	     46.10448767	    116.55858208	     91.63036793	     24.74722765	    -12.92357549	     54.87741766	    133.08989312	     93.23691085
      0.20000000	      4.28435612	     -3.96928792	      0.56541473	      1.40818188	      1.00411884	     -0.03705339	     34.21132477	     -0.23420228	     -3.46486680	     14.39801137	      0.25129270	     -4.59257319	      7.99878292	     -7.29994417	     -0.89413234	      3.41083961	      4.39055440	     12.15693309	      0.21217851	     14.85236963	      2.73036850	     -7.29994417	    -11.99087761	     -0.20773974	     -3.50923319	     25.72488189	     -2.15205785	     45.75349828	    116.55782002	     90.29729155	     24.99276255	    -12.96177172	     55.11299497	    133.12525711	     91.40699384
